<svg width="100" height="54" viewBox="0 0 100 54" fill="none" xmlns="http://www.w3.org/2000/svg">
<g clip-path="url(#clip0_3_2)">
<path d="M82.425 54H17.5C12.8083 54 8.43333 52.1863 5.15833 48.8024C1.8 45.494 0 41.0857 0 36.3667C0 31.6476 1.8 27.3905 5 24.0821C7.81667 21.1684 11.4083 19.3547 15.3167 18.8845C15.7083 14.0059 17.7417 9.51361 21.2583 6.05411C25.075 2.1244 30.2333 0 35.7 0C42.025 0 47.8917 2.9137 51.7167 7.79226C54.2167 6.13808 57.1833 5.19764 60.2333 5.19764C68.675 5.19764 75.55 12.125 75.55 20.631V20.7066H71.875V20.631C71.875 14.1738 66.6417 8.90064 60.2333 8.90064C57.425 8.90064 54.6833 9.92505 52.575 11.8143L51.0083 13.2334L49.8333 11.4197C46.7083 6.6167 41.475 3.703 35.7667 3.703C26.55 3.703 18.9667 11.2601 18.9667 20.631V22.4447L17.1667 22.5203C9.74167 22.7554 3.725 28.9775 3.725 36.4506C3.725 43.9238 9.9 50.381 17.55 50.381H82.475C90.1333 50.381 96.3 44.1589 96.3 36.4506H99.975C99.975 41.178 98.175 45.5864 94.8167 48.8863C91.4583 52.1947 87.0833 54 82.3917 54H82.425Z" fill="white"/>
<path d="M27.0333 42.2696C28.5167 42.194 29.6917 41.6398 30.625 40.7749C31.5667 39.9101 32.1917 38.7261 32.425 37.2315L35.8667 36.9964C35.6333 39.3559 34.6917 41.3291 33.1333 42.8993C31.5667 44.394 29.6167 45.2589 27.275 45.4184C24.5417 45.6535 22.1167 44.8642 20.0833 43.1345C18.05 41.4047 16.9583 39.1208 16.725 36.2826C16.4917 33.4529 17.275 31.0094 18.9917 28.9606C20.7917 26.9118 23.05 25.8118 25.7917 25.5767C28.1333 25.4171 30.2417 25.9713 31.9667 27.2309C33.7667 28.566 34.9333 30.3041 35.5583 32.6636L32.1167 32.8987C31.65 31.4797 30.8667 30.3797 29.85 29.6743C28.8333 28.969 27.5083 28.6499 26.025 28.7255C24.15 28.885 22.6667 29.5904 21.575 30.9255C20.4833 32.2606 19.9333 33.9147 20.0917 35.888C20.25 37.8612 20.95 39.3559 22.275 40.5314C23.6 41.8665 25.1667 42.4207 27.0417 42.2612L27.0333 42.2696Z" fill="#E9E9E9"/>
<path d="M48.2833 37.8613L45 30.1447L41.8 37.8613L40.475 41.0102L38.7583 45.2589H35.1667L43.525 25.9714H46.65L54.9333 45.1834H51.4167L49.5417 40.9346L48.2917 37.8613H48.2833Z" fill="#E9E9E9"/>
<path d="M70.2333 42.1185V42.9078C70.2333 44.1673 69.2167 45.1077 68.0417 45.1077H56.95V28.2637C56.95 27.0042 57.9667 26.0637 59.1417 26.0637H60.2333V42.1269H70.2333V42.1185Z" fill="#E9E9E9"/>
<path d="M79.3 25.2661C80.1583 25.2661 81.0167 25.3417 81.875 25.5852C82.7333 25.8203 83.5167 26.1394 84.2167 26.534C84.9167 26.9287 85.625 27.634 86.0917 28.4233C86.5583 29.2126 86.875 30.1531 87.025 31.337H83.7417C83.425 29.2126 82.025 28.1882 79.6 28.1882C78.425 28.1882 77.5667 28.4233 76.8667 28.8935C76.1667 29.3638 75.85 30.0775 75.85 30.9424C75.85 31.6477 76.0833 32.2019 76.55 32.5965C77.0167 32.9912 77.8 33.3019 78.8917 33.5454L81.3167 34.0156C83.2667 34.4103 84.675 35.04 85.6167 35.8293C86.55 36.6942 87.025 37.7942 87.025 39.2132C87.025 41.027 86.325 42.4376 84.9917 43.546C83.6583 44.6544 81.9417 45.2002 79.675 45.2002C77.4083 45.2002 75.4583 44.5704 73.975 43.4704C72.5667 42.2865 71.7083 40.6407 71.55 38.5919H74.8333C74.9917 39.6919 75.5333 40.6407 76.4 41.2705C77.2583 41.9002 78.4333 42.2193 79.8417 42.2193C81.0167 42.2193 81.875 41.9842 82.575 41.514C83.2 41.0438 83.5917 40.414 83.5917 39.6247C83.5917 38.4407 82.6583 37.6598 80.7833 37.2652L77.6583 36.6354C74.0667 35.9301 72.3417 34.1164 72.3417 31.2027C72.3417 29.389 72.9667 27.9783 74.2917 26.9539C75.4667 25.8539 77.1833 25.2997 79.2917 25.2997L79.3 25.2661Z" fill="#E9E9E9"/>
</g>
<defs>
<clipPath id="clip0_3_2">
<rect width="100" height="54" fill="white"/>
</clipPath>
</defs>
</svg>
