<svg width="100" height="100" viewBox="0 0 100 100" fill="none" xmlns="http://www.w3.org/2000/svg">
<path d="M5 52C7.76142 52 10 49.7614 10 47C10 44.2386 7.76142 42 5 42C2.23858 42 0 44.2386 0 47C0 49.7614 2.23858 52 5 52Z" fill="white"/>
<path d="M48.5 11C51.5376 11 54 8.53757 54 5.5C54 2.46243 51.5376 0 48.5 0C45.4624 0 43 2.46243 43 5.5C43 8.53757 45.4624 11 48.5 11Z" fill="white"/>
<path d="M92 40C94.7614 40 97 37.7614 97 35C97 32.2386 94.7614 30 92 30C89.2386 30 87 32.2386 87 35C87 37.7614 89.2386 40 92 40Z" fill="white"/>
<path d="M76.4904 85C79.1865 85 81.8168 83.9254 83.6024 81.9073C85.4891 79.7732 86 77.2053 86 74.6322C86 66.2371 79.1763 59.4312 70.7593 59.4312C70.2636 59.4312 69.773 59.4565 69.2924 59.5019C65.7212 52.1057 58.1338 47 49.3526 47C40.5714 47 33.7679 51.5961 29.9995 58.3818C29.18 58.2254 28.3303 58.1397 27.4653 58.1397C19.9031 58.1397 13.7977 64.3553 14.0051 71.9482C14.2125 79.5412 20.4089 85 27.7435 85H76.4904Z" fill="white"/>
<path d="M61.3787 85.3595L51.5152 75.4254C50.952 74.8582 50.0438 74.8582 49.4806 75.4254L39.6779 85.2982C38.8813 86.1005 38.7545 87.4035 39.4699 88.2774C40.2919 89.279 41.7734 89.3352 42.6614 88.4358L48.3339 82.7227V97.8282C48.3339 99.0291 49.2979 100 50.4903 100C51.6826 100 52.6467 99.0291 52.6467 97.8282V82.7227L58.2533 88.3694C59.0498 89.1717 60.3437 89.2994 61.2113 88.5789C62.2058 87.751 62.2616 86.2589 61.3686 85.3646L61.3787 85.3595Z" fill="#F1F1F1"/>
</svg>
