<svg width="100" height="100" viewBox="0 0 100 100" fill="none" xmlns="http://www.w3.org/2000/svg">
<g clip-path="url(#clip0_3_20)">
<path d="M36.38 53.7348C36.38 52.6285 35.4831 51.7332 34.3784 51.7332H15.7142C9.25321 51.7332 3.99691 46.4769 3.99691 40.0159C3.99691 33.5549 9.10477 28.4846 15.3829 28.3111L17.3236 28.2596V26.2923C17.3298 18.4095 23.7502 11.9953 31.6331 11.9953C36.4972 11.9953 40.9879 14.4376 43.6457 18.5282L44.9051 20.4673L46.6395 18.9376C48.4254 17.3688 50.7223 16.5032 53.1067 16.5032C60.174 16.5032 62.1506 22.1908 62.7006 25.1064C62.874 26.0252 63.7771 26.8205 64.7115 26.8095C65.9396 26.7955 66.8756 25.6877 66.6709 24.4689C65.9865 20.4001 62.449 12.5157 53.2911 12.5157C50.6114 12.5157 48.0067 13.2172 45.7457 14.6438C42.2597 10.4172 37.1363 8 31.6331 8C26.7424 8 22.1455 9.9047 18.6877 13.361C15.6939 16.3548 13.8298 20.2923 13.4173 24.4767C10.0079 24.9752 6.91881 26.5595 4.46879 29.0705C1.58751 32.0299 0 35.919 0 40.0222C0 44.1253 1.63908 48.1441 4.61567 51.1207C7.59225 54.0973 11.5329 55.7364 15.7142 55.7364H34.3784C35.4847 55.7364 36.38 54.8395 36.38 53.7348Z" fill="#F1F1F1"/>
<path d="M42.9145 57.0754C41.6848 56.366 40.7472 55.2988 40.2019 53.9848C39.5472 52.4066 39.5472 50.6676 40.2019 49.0879C40.8566 47.5097 42.0863 46.28 43.6645 45.6253C46.9239 44.2753 50.6755 45.8253 52.027 49.0832L49.1411 50.2801C48.4504 48.6129 46.5301 47.8207 44.8629 48.5113C44.0551 48.8457 43.4254 49.4754 43.091 50.2832C42.7566 51.091 42.7566 51.9801 43.091 52.7863C43.3691 53.4582 43.8488 54.0035 44.477 54.366L42.9176 57.0739L42.9145 57.0754Z" fill="white"/>
<path d="M34.2378 61.4958C34.0659 61.4958 33.8925 61.4677 33.7269 61.4098C33.3347 61.2739 33.0128 60.9895 32.8316 60.6161L30.68 56.1926C30.3018 55.416 30.6253 54.4817 31.4019 54.1035L33.7644 52.9551C33.6987 52.4301 33.6659 51.9019 33.6675 51.3754L31.1862 50.5176C30.3706 50.2363 29.9378 49.3457 30.2206 48.53L31.8269 43.8816C32.1081 43.0659 32.9987 42.6331 33.8144 42.9159L36.2956 43.7737C36.6206 43.3581 36.9707 42.9628 37.3472 42.5909L36.1988 40.2284C35.8206 39.4518 36.1441 38.5174 36.9206 38.1393L41.3441 35.9877C41.7176 35.8065 42.1457 35.7815 42.5379 35.9159C42.9301 36.0518 43.252 36.3362 43.4332 36.7096L44.5817 39.0721C45.1067 39.0065 45.6301 38.9753 46.1614 38.9753L47.0192 36.494C47.1551 36.1018 47.4395 35.7799 47.8129 35.5987C48.1848 35.4174 48.6145 35.3924 49.0067 35.5268L53.6552 37.1331C54.4708 37.4143 54.9036 38.3049 54.6208 39.1206L53.3786 42.7144L50.4255 41.694L51.1567 39.5768L49.4614 38.9909L48.7301 41.1081C48.4926 41.7956 47.8129 42.2284 47.0895 42.1519C46.0723 42.044 45.0457 42.1065 44.041 42.3378C43.3332 42.5003 42.6051 42.1519 42.2863 41.4987L41.3051 39.4815L39.6925 40.2659L40.6738 42.2831C40.9926 42.9378 40.816 43.7253 40.2504 44.1816C39.4488 44.83 38.766 45.5988 38.2222 46.4644C37.8363 47.08 37.0753 47.3488 36.3878 47.1113L34.2706 46.38L33.6847 48.0753L35.8019 48.8066C36.4894 49.0441 36.9222 49.7254 36.8456 50.4488C36.7378 51.466 36.8003 52.491 37.0316 53.4973C37.1941 54.2067 36.8456 54.9332 36.1925 55.252L34.1753 56.2332L34.9597 57.8458L36.9769 56.8645L38.3441 59.6755L34.9222 61.3395C34.7066 61.4442 34.4738 61.4973 34.2394 61.4973L34.2378 61.4958Z" fill="white"/>
<path d="M43.7222 92.3758C43.5222 92.3758 43.3207 92.3367 43.1254 92.257L38.5034 90.3429C37.7066 90.0132 37.3269 89.0992 37.6581 88.3007L38.6878 85.8163C38.2753 85.4554 37.8878 85.0663 37.5253 84.6522L35.0393 85.6819C34.6565 85.8413 34.2268 85.8398 33.844 85.6819C33.4612 85.5226 33.1565 85.2194 32.9987 84.8366L31.0846 80.2147C30.9252 79.8319 30.9252 79.4022 31.0846 79.0194C31.2424 78.6366 31.5471 78.3319 31.9299 78.1741L34.4159 77.1444C34.38 76.5959 34.3784 76.0475 34.4159 75.499L31.9315 74.4693C31.5487 74.31 31.244 74.0068 31.0862 73.624C30.9284 73.2412 30.9268 72.8115 31.0862 72.4287L33.0003 67.8068C33.33 67.0099 34.244 66.6318 35.0409 66.9615L37.5253 67.9912C37.8862 67.5787 38.2753 67.1912 38.6894 66.8286L37.6597 64.3427C37.33 63.5458 37.7081 62.6317 38.505 62.3005L43.1269 60.3864C43.5097 60.227 43.9394 60.2286 44.3222 60.3864C44.7051 60.5458 45.0097 60.8489 45.1676 61.2317L46.1973 63.7177C46.7457 63.6817 47.2941 63.6802 47.841 63.7177L48.8707 61.2333C49.2004 60.4364 50.116 60.0583 50.9129 60.388L55.5348 62.302C55.9177 62.4614 56.2223 62.7646 56.3802 63.1474C56.5395 63.5302 56.5395 63.9599 56.3802 64.3427L55.3505 66.8271C55.763 67.188 56.1505 67.5771 56.5114 67.9912L58.9974 66.9615C59.3802 66.8037 59.8099 66.8037 60.1927 66.9615C60.5755 67.1208 60.8802 67.424 61.038 67.8068L62.9521 72.4287C63.2818 73.2256 62.9037 74.1397 62.1068 74.4709L59.6208 75.5006C59.6567 76.049 59.6583 76.5975 59.6208 77.1444L62.1052 78.1741C62.488 78.3334 62.7927 78.6366 62.9505 79.0194C63.1099 79.4022 63.1099 79.8319 62.9505 80.2147L61.0364 84.8366C60.7068 85.6335 59.7927 86.0116 58.9942 85.6819L56.5098 84.6522C56.1489 85.0648 55.7598 85.4523 55.3458 85.8148L56.3755 88.3007C56.7052 89.0976 56.327 90.0117 55.5302 90.3429L50.9082 92.257C50.5254 92.4164 50.0957 92.4148 49.7129 92.257C49.3301 92.0976 49.0254 91.7945 48.8676 91.4117L47.8379 88.9257C47.2895 88.9617 46.741 88.9632 46.1941 88.9257L45.1644 91.4101C44.9144 92.0117 44.3332 92.3742 43.7207 92.3758H43.7222ZM41.1425 88.0523L42.8769 88.771L43.7597 86.6413C44.0379 85.9694 44.7426 85.5773 45.4597 85.6976C46.4894 85.8694 47.5379 85.8679 48.5738 85.6944C49.291 85.5741 49.9973 85.9648 50.2754 86.6382L51.1582 88.7695L52.8926 88.0507L52.0098 85.9194C51.7317 85.2476 51.9536 84.4726 52.5457 84.0491C53.402 83.4382 54.1442 82.6975 54.7505 81.8491C55.1723 81.2569 55.9473 81.035 56.6208 81.3132L58.7489 82.1944L59.4677 80.46L57.338 79.5788C56.6661 79.3006 56.2755 78.5944 56.3942 77.8772C56.5661 76.8491 56.5661 75.8006 56.3911 74.7631C56.2708 74.0459 56.6614 73.3396 57.3349 73.0615L59.4661 72.1787L58.7474 70.4443L56.6161 71.3271C55.9442 71.6068 55.1692 71.3834 54.7458 70.7912C54.1348 69.9349 53.3942 69.1927 52.5457 68.5865C51.9536 68.1646 51.7317 67.388 52.0098 66.7161L52.8911 64.5864L51.1567 63.8677L50.2754 65.9974C49.9973 66.6693 49.291 67.0599 48.5738 66.9412C47.5457 66.7693 46.4973 66.7708 45.4597 66.9443C44.7426 67.0646 44.0363 66.6724 43.7582 66.0005L42.8753 63.8692L41.141 64.588L42.0238 66.7193C42.3019 67.3912 42.08 68.1662 41.4878 68.5896C40.6316 69.2005 39.8894 69.9412 39.2831 70.7896C38.8613 71.3818 38.0847 71.6037 37.4128 71.3256L35.2831 70.4443L34.5643 72.1787L36.694 73.06C37.3659 73.3381 37.7566 74.0443 37.6378 74.7615C37.4659 75.7897 37.4675 76.8381 37.6409 77.8756C37.7612 78.5928 37.3691 79.2991 36.6972 79.5772L34.5659 80.46L35.2847 82.1944L37.4159 81.3116C38.0878 81.0335 38.8628 81.2553 39.2863 81.8475C39.8972 82.7038 40.6378 83.446 41.4863 84.0522C42.0785 84.4741 42.3003 85.2507 42.0222 85.921L41.141 88.0507L41.1425 88.0523Z" fill="white"/>
<path d="M47.0191 82.746C46.1863 82.746 45.3551 82.5819 44.5613 82.2538C42.9769 81.5975 41.7425 80.3631 41.0863 78.7788C40.43 77.1944 40.43 75.449 41.0863 73.8646C42.441 70.5927 46.2051 69.0349 49.477 70.3896C51.0614 71.0459 52.2957 72.2803 52.952 73.8646C53.6083 75.449 53.6083 77.1944 52.952 78.7788C52.2957 80.3631 51.0614 81.5975 49.477 82.2538C48.6848 82.5819 47.852 82.746 47.0191 82.746ZM47.0238 73.024C45.7301 73.024 44.4988 73.7912 43.9738 75.06C43.6363 75.874 43.6363 76.7694 43.9738 77.5834C44.3113 78.3975 44.9441 79.0303 45.7582 79.3678C46.5723 79.7053 47.4676 79.7053 48.2816 79.3678C49.0957 79.0303 49.7285 78.3975 50.066 77.5834C50.4035 76.7694 50.4035 75.874 50.066 75.06C49.7285 74.2459 49.0957 73.6131 48.2816 73.2756C47.8707 73.1053 47.4441 73.024 47.0254 73.024H47.0238Z" fill="white"/>
<path d="M82.0742 74.0818C81.4992 74.0818 80.9492 73.7631 80.6757 73.2178L79.2351 70.3396C77.9148 70.4787 76.5913 70.4802 75.2757 70.3427L73.8366 73.2178C73.4694 73.9506 72.5991 74.2756 71.8413 73.9615L65.0865 71.1631C64.3287 70.849 63.9428 70.0037 64.2021 69.2255L65.2178 66.1755C64.1912 65.3427 63.2552 64.4052 62.4209 63.3739L59.3661 64.3911C58.588 64.6505 57.7427 64.2646 57.4286 63.5067L54.6302 56.752C54.3161 55.9942 54.6411 55.1238 55.3739 54.7567L58.2521 53.316C58.113 51.9957 58.1114 50.6722 58.249 49.3566L55.3739 47.9175C54.6411 47.5503 54.3161 46.68 54.6302 45.9222L57.4286 39.1675C57.7427 38.4096 58.588 38.0237 59.3661 38.2831L62.4177 39.2987C63.2506 38.2721 64.1881 37.3362 65.2193 36.5018L64.2021 33.4471C63.9428 32.669 64.3287 31.8236 65.0865 31.5096L71.8413 28.7111C72.5991 28.3971 73.4694 28.7221 73.8366 29.4549L75.2772 32.333C76.5975 32.194 77.921 32.1924 79.2351 32.3299L80.6741 29.4549C81.0413 28.7221 81.9117 28.3971 82.6695 28.7111L89.4242 31.5096C90.182 31.8236 90.568 32.669 90.3086 33.4471L89.293 36.4987C90.3195 37.3315 91.2555 38.2675 92.0899 39.3003L95.1446 38.2831C95.9227 38.0237 96.768 38.4096 97.0821 39.1675L99.8806 45.9222C100.195 46.68 99.8696 47.5503 99.1368 47.9175L96.2587 49.3582C96.3977 50.6785 96.3993 52.0019 96.2618 53.3176L99.1368 54.7567C99.8696 55.1238 100.195 55.9942 99.8806 56.752L97.0821 63.5067C96.768 64.2646 95.9227 64.6505 95.1446 64.3911L92.093 63.3755C91.2602 64.4021 90.3227 65.338 89.2914 66.1724L90.3086 69.2271C90.568 70.0052 90.182 70.8506 89.4242 71.1646L82.6695 73.9631C82.4742 74.0443 82.271 74.0818 82.0726 74.0818H82.0742ZM67.6272 68.8349L71.6944 70.5193L72.9819 67.9458C73.2881 67.3318 73.96 66.9911 74.6366 67.1036C76.3679 67.3927 78.1304 67.3911 79.8741 67.099C80.5507 66.9865 81.2226 67.3271 81.5288 67.9412L82.8179 70.5177L86.8851 68.8333L85.9742 66.0989C85.757 65.4474 85.9914 64.7317 86.5492 64.3333C87.9898 63.3067 89.2367 62.0614 90.2555 60.6317C90.6539 60.0739 91.3696 59.8411 92.0211 60.0567L94.7508 60.9661L96.4352 56.8989L93.8618 55.6114C93.2477 55.3051 92.9071 54.6332 93.0196 53.9567C93.3086 52.2254 93.3071 50.4629 93.0149 48.7175C92.9024 48.041 93.243 47.3691 93.8571 47.0628L96.4337 45.7738L94.7493 41.7081L92.0149 42.6191C91.3633 42.8362 90.6477 42.6019 90.2492 42.044C89.2211 40.6034 87.9758 39.3565 86.5476 38.3378C85.9898 37.9393 85.7554 37.2237 85.9726 36.5721L86.882 33.8424L82.8148 32.158L81.5273 34.7315C81.221 35.3456 80.5476 35.6862 79.8726 35.5737C78.1413 35.2846 76.3788 35.2862 74.6335 35.5784C73.9585 35.6909 73.285 35.3502 72.9788 34.7362L71.6897 32.1596L67.6225 33.844L68.5334 36.5784C68.7506 37.2299 68.5162 37.9456 67.9584 38.344C66.5178 39.3721 65.2709 40.6159 64.2521 42.0456C63.8537 42.6034 63.1381 42.8378 62.4865 42.6206L59.7568 41.7112L58.0724 45.7785L60.6458 47.066C61.2599 47.3722 61.6005 48.0441 61.488 48.7207C61.199 50.4519 61.2005 52.2145 61.4927 53.9582C61.6052 54.6348 61.2646 55.3067 60.6505 55.6129L58.0739 56.902L59.7583 60.9677L62.4927 60.0567C63.1443 59.8411 63.8599 60.0739 64.2584 60.6317C65.2865 62.0723 66.5318 63.3192 67.96 64.338C68.5178 64.7364 68.7522 65.4521 68.535 66.1036L67.6256 68.8333L67.6272 68.8349Z" fill="white"/>
<path d="M77.2694 59.9161C73.9007 59.9161 70.7006 57.9223 69.3319 54.6223C68.4537 52.5051 68.4537 50.1738 69.3319 48.0566C70.2084 45.9394 71.8584 44.2909 73.9757 43.4128C78.3476 41.6019 83.3757 43.6831 85.1867 48.0519C86.0648 50.1691 86.0648 52.5004 85.1867 54.6176C84.3101 56.7348 82.6601 58.3833 80.5429 59.2614C79.4726 59.7051 78.3616 59.9161 77.2679 59.9161H77.2694ZM77.2554 45.8831C76.5601 45.8831 75.8538 46.0175 75.1725 46.2988C73.8257 46.8566 72.7772 47.905 72.2194 49.2519C71.6616 50.5972 71.6616 52.0801 72.2194 53.4254C73.371 56.2035 76.5679 57.5254 79.3476 56.3754C80.6945 55.8176 81.7429 54.7692 82.3007 53.4223C82.8585 52.0769 82.8585 50.5941 82.3007 49.2488C81.432 47.1519 79.396 45.8831 77.2554 45.8831Z" fill="white"/>
</g>
<defs>
<clipPath id="clip0_3_20">
<rect width="100" height="100" fill="white"/>
</clipPath>
</defs>
</svg>
